<svg width="1068" height="1145" viewBox="0 0 1068 1145" fill="none" xmlns="http://www.w3.org/2000/svg">
<path fill-rule="evenodd" clip-rule="evenodd" d="M1046 534C1046 816.77 816.77 1046 534 1046C251.23 1046 22 816.77 22 534C22 251.23 251.23 22 534 22C816.77 22 1046 251.23 1046 534ZM214 254C214 223.072 239.072 198 270 198H326H518C588.693 198 646 255.307 646 326V534C646 604.693 588.693 662 518 662H326H214V254ZM534 326H326V534H534V326ZM278 870C242.654 870 214 841.346 214 806V694H470C567.202 694 646 772.798 646 870H278ZM798 198H726V870H798C828.928 870 854 844.928 854 814V254C854 223.072 828.928 198 798 198Z" fill="url(#paint0_linear_1054_679)"/>
<path d="M416.952 1061.45V1108H411.497L386.134 1071.45H385.679V1108H380.043V1061.45H385.497L410.952 1098.09H411.406V1061.45H416.952ZM441.685 1108.73C438.533 1108.73 435.768 1107.98 433.389 1106.48C431.026 1104.98 429.177 1102.88 427.844 1100.18C426.526 1097.48 425.866 1094.33 425.866 1090.73C425.866 1087.09 426.526 1083.92 427.844 1081.2C429.177 1078.49 431.026 1076.39 433.389 1074.89C435.768 1073.39 438.533 1072.64 441.685 1072.64C444.836 1072.64 447.594 1073.39 449.957 1074.89C452.336 1076.39 454.185 1078.49 455.503 1081.2C456.836 1083.92 457.503 1087.09 457.503 1090.73C457.503 1094.33 456.836 1097.48 455.503 1100.18C454.185 1102.88 452.336 1104.98 449.957 1106.48C447.594 1107.98 444.836 1108.73 441.685 1108.73ZM441.685 1103.91C444.079 1103.91 446.048 1103.3 447.594 1102.07C449.139 1100.84 450.283 1099.23 451.026 1097.23C451.768 1095.23 452.139 1093.06 452.139 1090.73C452.139 1088.39 451.768 1086.22 451.026 1084.2C450.283 1082.19 449.139 1080.56 447.594 1079.32C446.048 1078.08 444.079 1077.45 441.685 1077.45C439.291 1077.45 437.321 1078.08 435.776 1079.32C434.23 1080.56 433.086 1082.19 432.344 1084.2C431.601 1086.22 431.23 1088.39 431.23 1090.73C431.23 1093.06 431.601 1095.23 432.344 1097.23C433.086 1099.23 434.23 1100.84 435.776 1102.07C437.321 1103.3 439.291 1103.91 441.685 1103.91ZM480.872 1073.09V1077.64H462.781V1073.09H480.872ZM468.054 1064.73H473.418V1098C473.418 1099.52 473.637 1100.65 474.077 1101.41C474.531 1102.15 475.107 1102.65 475.804 1102.91C476.516 1103.15 477.266 1103.27 478.054 1103.27C478.645 1103.27 479.13 1103.24 479.509 1103.18C479.887 1103.11 480.19 1103.05 480.418 1103L481.509 1107.82C481.145 1107.95 480.637 1108.09 479.986 1108.23C479.334 1108.38 478.509 1108.45 477.509 1108.45C475.993 1108.45 474.509 1108.13 473.054 1107.48C471.615 1106.83 470.418 1105.83 469.463 1104.5C468.524 1103.17 468.054 1101.48 468.054 1099.45V1064.73ZM503.202 1108.73C499.838 1108.73 496.937 1107.98 494.497 1106.5C492.073 1105 490.202 1102.91 488.884 1100.23C487.58 1097.53 486.929 1094.39 486.929 1090.82C486.929 1087.24 487.58 1084.09 488.884 1081.36C490.202 1078.62 492.035 1076.48 494.384 1074.95C496.747 1073.41 499.505 1072.64 502.656 1072.64C504.474 1072.64 506.27 1072.94 508.043 1073.55C509.815 1074.15 511.429 1075.14 512.884 1076.5C514.338 1077.85 515.497 1079.64 516.361 1081.86C517.224 1084.09 517.656 1086.83 517.656 1090.09V1092.36H490.747V1087.73H512.202C512.202 1085.76 511.808 1084 511.02 1082.45C510.247 1080.91 509.141 1079.69 507.702 1078.8C506.277 1077.9 504.596 1077.45 502.656 1077.45C500.52 1077.45 498.671 1077.98 497.111 1079.05C495.565 1080.09 494.376 1081.45 493.543 1083.14C492.709 1084.82 492.293 1086.62 492.293 1088.55V1091.64C492.293 1094.27 492.747 1096.51 493.656 1098.34C494.58 1100.16 495.861 1101.55 497.497 1102.5C499.134 1103.44 501.035 1103.91 503.202 1103.91C504.611 1103.91 505.884 1103.71 507.02 1103.32C508.171 1102.91 509.164 1102.3 509.997 1101.5C510.83 1100.68 511.474 1099.67 511.929 1098.45L517.111 1099.91C516.565 1101.67 515.649 1103.21 514.361 1104.55C513.073 1105.86 511.482 1106.89 509.588 1107.64C507.694 1108.36 505.565 1108.73 503.202 1108.73ZM550.543 1080.91L545.724 1082.27C545.421 1081.47 544.974 1080.69 544.384 1079.93C543.808 1079.16 543.02 1078.52 542.02 1078.02C541.02 1077.52 539.74 1077.27 538.179 1077.27C536.043 1077.27 534.262 1077.77 532.838 1078.75C531.429 1079.72 530.724 1080.95 530.724 1082.45C530.724 1083.79 531.209 1084.84 532.179 1085.61C533.149 1086.39 534.664 1087.03 536.724 1087.55L541.906 1088.82C545.027 1089.58 547.353 1090.73 548.884 1092.3C550.414 1093.84 551.179 1095.83 551.179 1098.27C551.179 1100.27 550.603 1102.06 549.452 1103.64C548.315 1105.21 546.724 1106.45 544.679 1107.36C542.634 1108.27 540.255 1108.73 537.543 1108.73C533.982 1108.73 531.035 1107.95 528.702 1106.41C526.368 1104.86 524.891 1102.61 524.27 1099.64L529.361 1098.36C529.846 1100.24 530.762 1101.65 532.111 1102.59C533.474 1103.53 535.255 1104 537.452 1104C539.952 1104 541.937 1103.47 543.406 1102.41C544.891 1101.33 545.634 1100.05 545.634 1098.55C545.634 1097.33 545.209 1096.32 544.361 1095.5C543.512 1094.67 542.209 1094.05 540.452 1093.64L534.634 1092.27C531.437 1091.52 529.088 1090.34 527.588 1088.75C526.103 1087.14 525.361 1085.14 525.361 1082.73C525.361 1080.76 525.914 1079.02 527.02 1077.5C528.141 1075.98 529.664 1074.8 531.588 1073.93C533.527 1073.07 535.724 1072.64 538.179 1072.64C541.634 1072.64 544.346 1073.39 546.315 1074.91C548.3 1076.42 549.709 1078.42 550.543 1080.91ZM579.889 1108H573.98L591.071 1061.45H596.889L613.98 1108H608.071L594.162 1068.82H593.798L579.889 1108ZM582.071 1089.82H605.889V1094.82H582.071V1089.82ZM620.503 1121.09V1073.09H625.685V1078.64H626.321C626.715 1078.03 627.26 1077.26 627.957 1076.32C628.67 1075.36 629.685 1074.52 631.003 1073.77C632.336 1073.02 634.139 1072.64 636.412 1072.64C639.351 1072.64 641.942 1073.37 644.185 1074.84C646.427 1076.31 648.177 1078.39 649.435 1081.09C650.692 1083.79 651.321 1086.97 651.321 1090.64C651.321 1094.33 650.692 1097.54 649.435 1100.25C648.177 1102.95 646.435 1105.04 644.207 1106.52C641.98 1107.99 639.412 1108.73 636.503 1108.73C634.26 1108.73 632.465 1108.36 631.116 1107.61C629.768 1106.86 628.73 1106 628.003 1105.05C627.276 1104.08 626.715 1103.27 626.321 1102.64H625.866V1121.09H620.503ZM625.776 1090.55C625.776 1093.18 626.162 1095.51 626.935 1097.52C627.707 1099.52 628.836 1101.09 630.321 1102.23C631.806 1103.35 633.624 1103.91 635.776 1103.91C638.018 1103.91 639.889 1103.32 641.389 1102.14C642.904 1100.94 644.041 1099.33 644.798 1097.32C645.571 1095.29 645.957 1093.03 645.957 1090.55C645.957 1088.09 645.579 1085.88 644.821 1083.91C644.079 1081.92 642.95 1080.36 641.435 1079.2C639.935 1078.04 638.048 1077.45 635.776 1077.45C633.594 1077.45 631.76 1078.01 630.276 1079.11C628.791 1080.2 627.67 1081.73 626.912 1083.7C626.154 1085.66 625.776 1087.94 625.776 1090.55ZM659.503 1121.09V1073.09H664.685V1078.64H665.321C665.715 1078.03 666.26 1077.26 666.957 1076.32C667.67 1075.36 668.685 1074.52 670.003 1073.77C671.336 1073.02 673.139 1072.64 675.412 1072.64C678.351 1072.64 680.942 1073.37 683.185 1074.84C685.427 1076.31 687.177 1078.39 688.435 1081.09C689.692 1083.79 690.321 1086.97 690.321 1090.64C690.321 1094.33 689.692 1097.54 688.435 1100.25C687.177 1102.95 685.435 1105.04 683.207 1106.52C680.98 1107.99 678.412 1108.73 675.503 1108.73C673.26 1108.73 671.465 1108.36 670.116 1107.61C668.768 1106.86 667.73 1106 667.003 1105.05C666.276 1104.08 665.715 1103.27 665.321 1102.64H664.866V1121.09H659.503ZM664.776 1090.55C664.776 1093.18 665.162 1095.51 665.935 1097.52C666.707 1099.52 667.836 1101.09 669.321 1102.23C670.806 1103.35 672.624 1103.91 674.776 1103.91C677.018 1103.91 678.889 1103.32 680.389 1102.14C681.904 1100.94 683.041 1099.33 683.798 1097.32C684.571 1095.29 684.957 1093.03 684.957 1090.55C684.957 1088.09 684.579 1085.88 683.821 1083.91C683.079 1081.92 681.95 1080.36 680.435 1079.2C678.935 1078.04 677.048 1077.45 674.776 1077.45C672.594 1077.45 670.76 1078.01 669.276 1079.11C667.791 1080.2 666.67 1081.73 665.912 1083.7C665.154 1085.66 664.776 1087.94 664.776 1090.55Z" fill="white"/>
<defs>
<linearGradient id="paint0_linear_1054_679" x1="534" y1="22" x2="387" y2="1019" gradientUnits="userSpaceOnUse">
<stop stop-color="#94B9FF"/>
<stop offset="1" stop-color="#DD00FF"/>
</linearGradient>
</defs>
</svg>
