<svg width="456" height="532" viewBox="0 0 456 532" fill="none" xmlns="http://www.w3.org/2000/svg">
<path d="M140.214 111.091V146H136.123L117.1 118.591H116.759V146H112.532V111.091H116.623L135.714 138.568H136.055V111.091H140.214ZM158.763 146.545C156.4 146.545 154.326 145.983 152.542 144.858C150.769 143.733 149.383 142.159 148.383 140.136C147.394 138.114 146.9 135.75 146.9 133.045C146.9 130.318 147.394 127.937 148.383 125.903C149.383 123.869 150.769 122.29 152.542 121.165C154.326 120.04 156.4 119.477 158.763 119.477C161.127 119.477 163.195 120.04 164.968 121.165C166.752 122.29 168.138 123.869 169.127 125.903C170.127 127.937 170.627 130.318 170.627 133.045C170.627 135.75 170.127 138.114 169.127 140.136C168.138 142.159 166.752 143.733 164.968 144.858C163.195 145.983 161.127 146.545 158.763 146.545ZM158.763 142.932C160.559 142.932 162.036 142.472 163.195 141.551C164.354 140.631 165.212 139.42 165.769 137.92C166.326 136.42 166.604 134.795 166.604 133.045C166.604 131.295 166.326 129.665 165.769 128.153C165.212 126.642 164.354 125.42 163.195 124.489C162.036 123.557 160.559 123.091 158.763 123.091C156.968 123.091 155.491 123.557 154.332 124.489C153.173 125.42 152.315 126.642 151.758 128.153C151.201 129.665 150.923 131.295 150.923 133.045C150.923 134.795 151.201 136.42 151.758 137.92C152.315 139.42 153.173 140.631 154.332 141.551C155.491 142.472 156.968 142.932 158.763 142.932ZM188.154 119.818V123.227H174.586V119.818H188.154ZM178.54 113.545H182.563V138.5C182.563 139.636 182.728 140.489 183.058 141.057C183.398 141.614 183.83 141.989 184.353 142.182C184.887 142.364 185.45 142.455 186.04 142.455C186.484 142.455 186.847 142.432 187.131 142.386C187.415 142.33 187.643 142.284 187.813 142.25L188.631 145.864C188.359 145.966 187.978 146.068 187.489 146.17C187.001 146.284 186.381 146.341 185.631 146.341C184.495 146.341 183.381 146.097 182.29 145.608C181.211 145.119 180.313 144.375 179.597 143.375C178.893 142.375 178.54 141.114 178.54 139.591V113.545ZM204.901 146.545C202.379 146.545 200.202 145.989 198.373 144.875C196.555 143.75 195.151 142.182 194.163 140.17C193.185 138.148 192.697 135.795 192.697 133.114C192.697 130.432 193.185 128.068 194.163 126.023C195.151 123.966 196.526 122.364 198.288 121.216C200.06 120.057 202.129 119.477 204.492 119.477C205.856 119.477 207.202 119.705 208.532 120.159C209.862 120.614 211.072 121.352 212.163 122.375C213.254 123.386 214.123 124.727 214.771 126.398C215.418 128.068 215.742 130.125 215.742 132.568V134.273H195.56V130.795H211.651C211.651 129.318 211.356 128 210.765 126.841C210.185 125.682 209.356 124.767 208.276 124.097C207.208 123.426 205.947 123.091 204.492 123.091C202.89 123.091 201.504 123.489 200.333 124.284C199.174 125.068 198.282 126.091 197.657 127.352C197.032 128.614 196.719 129.966 196.719 131.409V133.727C196.719 135.705 197.06 137.381 197.742 138.756C198.435 140.119 199.396 141.159 200.623 141.875C201.85 142.58 203.276 142.932 204.901 142.932C205.958 142.932 206.913 142.784 207.765 142.489C208.629 142.182 209.373 141.727 209.998 141.125C210.623 140.511 211.106 139.75 211.447 138.841L215.333 139.932C214.924 141.25 214.237 142.409 213.271 143.409C212.305 144.398 211.112 145.17 209.691 145.727C208.271 146.273 206.674 146.545 204.901 146.545ZM240.407 125.682L236.793 126.705C236.566 126.102 236.231 125.517 235.788 124.949C235.356 124.369 234.765 123.892 234.015 123.517C233.265 123.142 232.305 122.955 231.134 122.955C229.532 122.955 228.197 123.324 227.129 124.062C226.072 124.79 225.543 125.716 225.543 126.841C225.543 127.841 225.907 128.631 226.634 129.21C227.362 129.79 228.498 130.273 230.043 130.659L233.93 131.614C236.271 132.182 238.015 133.051 239.163 134.222C240.31 135.381 240.884 136.875 240.884 138.705C240.884 140.205 240.452 141.545 239.589 142.727C238.737 143.909 237.543 144.841 236.009 145.523C234.475 146.205 232.691 146.545 230.657 146.545C227.987 146.545 225.776 145.966 224.026 144.807C222.276 143.648 221.168 141.955 220.702 139.727L224.521 138.773C224.884 140.182 225.572 141.239 226.583 141.943C227.606 142.648 228.941 143 230.589 143C232.464 143 233.952 142.602 235.055 141.807C236.168 141 236.725 140.034 236.725 138.909C236.725 138 236.407 137.239 235.771 136.625C235.134 136 234.157 135.534 232.839 135.227L228.475 134.205C226.077 133.636 224.316 132.756 223.191 131.562C222.077 130.358 221.521 128.852 221.521 127.045C221.521 125.568 221.935 124.261 222.765 123.125C223.606 121.989 224.748 121.097 226.191 120.449C227.646 119.801 229.293 119.477 231.134 119.477C233.725 119.477 235.759 120.045 237.237 121.182C238.725 122.318 239.782 123.818 240.407 125.682ZM262.417 146H257.985L270.803 111.091H275.167L287.985 146H283.553L273.121 116.614H272.849L262.417 146ZM264.053 132.364H281.917V136.114H264.053V132.364ZM292.877 155.818V119.818H296.763V123.977H297.241C297.536 123.523 297.945 122.943 298.468 122.239C299.002 121.523 299.763 120.886 300.752 120.33C301.752 119.761 303.104 119.477 304.809 119.477C307.013 119.477 308.957 120.028 310.638 121.131C312.32 122.233 313.633 123.795 314.576 125.818C315.519 127.841 315.991 130.227 315.991 132.977C315.991 135.75 315.519 138.153 314.576 140.188C313.633 142.21 312.326 143.778 310.656 144.892C308.985 145.994 307.059 146.545 304.877 146.545C303.195 146.545 301.849 146.267 300.837 145.71C299.826 145.142 299.048 144.5 298.502 143.784C297.957 143.057 297.536 142.455 297.241 141.977H296.9V155.818H292.877ZM296.832 132.909C296.832 134.886 297.121 136.631 297.701 138.142C298.281 139.642 299.127 140.818 300.241 141.67C301.354 142.511 302.718 142.932 304.332 142.932C306.013 142.932 307.417 142.489 308.542 141.602C309.678 140.705 310.531 139.5 311.099 137.989C311.678 136.466 311.968 134.773 311.968 132.909C311.968 131.068 311.684 129.409 311.116 127.932C310.559 126.443 309.712 125.267 308.576 124.403C307.451 123.528 306.036 123.091 304.332 123.091C302.695 123.091 301.32 123.506 300.207 124.335C299.093 125.153 298.252 126.301 297.684 127.778C297.116 129.244 296.832 130.955 296.832 132.909ZM322.127 155.818V119.818H326.013V123.977H326.491C326.786 123.523 327.195 122.943 327.718 122.239C328.252 121.523 329.013 120.886 330.002 120.33C331.002 119.761 332.354 119.477 334.059 119.477C336.263 119.477 338.207 120.028 339.888 121.131C341.57 122.233 342.883 123.795 343.826 125.818C344.769 127.841 345.241 130.227 345.241 132.977C345.241 135.75 344.769 138.153 343.826 140.188C342.883 142.21 341.576 143.778 339.906 144.892C338.235 145.994 336.309 146.545 334.127 146.545C332.445 146.545 331.099 146.267 330.087 145.71C329.076 145.142 328.298 144.5 327.752 143.784C327.207 143.057 326.786 142.455 326.491 141.977H326.15V155.818H322.127ZM326.082 132.909C326.082 134.886 326.371 136.631 326.951 138.142C327.531 139.642 328.377 140.818 329.491 141.67C330.604 142.511 331.968 142.932 333.582 142.932C335.263 142.932 336.667 142.489 337.792 141.602C338.928 140.705 339.781 139.5 340.349 137.989C340.928 136.466 341.218 134.773 341.218 132.909C341.218 131.068 340.934 129.409 340.366 127.932C339.809 126.443 338.962 125.267 337.826 124.403C336.701 123.528 335.286 123.091 333.582 123.091C331.945 123.091 330.57 123.506 329.457 124.335C328.343 125.153 327.502 126.301 326.934 127.778C326.366 129.244 326.082 130.955 326.082 132.909Z" fill="white"/>
<g clip-path="url(#clip0_1034_278)">
<mask id="mask0_1034_278" style="mask-type:luminance" maskUnits="userSpaceOnUse" x="100" y="176" width="256" height="256">
<path d="M356 176H100V432H356V176Z" fill="white"/>
</mask>
<g mask="url(#mask0_1034_278)">
<path d="M292 176H164C128.654 176 100 204.654 100 240V368C100 403.346 128.654 432 164 432H292C327.346 432 356 403.346 356 368V240C356 204.654 327.346 176 292 176Z" fill="white"/>
<path d="M300 208H156C142.745 208 132 218.745 132 232V376C132 389.255 142.745 400 156 400H300C313.255 400 324 389.255 324 376V232C324 218.745 313.255 208 300 208Z" stroke="black" stroke-width="16"/>
<path d="M156 232H280" stroke="black" stroke-width="16"/>
<path d="M148 256H308" stroke="black" stroke-width="16"/>
<path d="M148 280H308" stroke="black" stroke-width="16"/>
<path d="M148 304H308" stroke="black" stroke-width="16"/>
<path d="M148 328H308" stroke="black" stroke-width="16"/>
<path d="M160 352H308" stroke="black" stroke-width="16"/>
<path d="M148 234C148 226.268 154.268 220 162 220H176V336H148V234Z" fill="#3D5BF0"/>
<path d="M228 252H256V304H228V252Z" fill="#3D5BF0"/>
<path d="M276 220H294C301.732 220 308 226.268 308 234V374C308 381.732 301.732 388 294 388H276V220Z" fill="#3D5BF0"/>
<path d="M176 336V304H256C256 321.673 241.673 336 224 336H176Z" fill="#3D5BF0"/>
<path d="M176 220V252H256C256 234.327 241.673 220 224 220H176Z" fill="#3D5BF0"/>
<path d="M164 388C155.163 388 148 380.837 148 372V344H212C236.301 344 256 363.699 256 388H164Z" fill="#3D5BF0"/>
</g>
</g>
<defs>
<clipPath id="clip0_1034_278">
<rect width="256" height="256" fill="white" transform="translate(100 176)"/>
</clipPath>
</defs>
</svg>
